<svg width="1920" height="819" viewBox="0 0 1920 819" fill="none" xmlns="http://www.w3.org/2000/svg">
<g clip-path="url(#clip0_1_1065)">
<rect width="1440" height="120" fill="white"/>
<g filter="url(#filter0_b_1_1065)">
<path d="M0 0H1920V511.5L0 752V0Z" fill="#F2F7FF" fill-opacity="0.7"/>
</g>
<path d="M1500 539.517L1920 487V551L1500 603.517V539.517Z" fill="#009D4E" fill-opacity="0.8"/>
<path d="M0 688.016L420 635.499V699.499L0 752.016V688.016Z" fill="#009D4E" fill-opacity="0.8"/>
<path d="M-152 771.005L268 718.488V782.488L-152 835.005V771.005Z" fill="#EDE9FE"/>
<path opacity="0.2" d="M1643.8 296.405C1665.47 296.405 1683.04 278.853 1683.04 257.202C1683.04 235.551 1665.47 218 1643.8 218C1622.12 218 1604.55 235.551 1604.55 257.202C1604.55 278.853 1622.12 296.405 1643.8 296.405Z" fill="url(#paint0_linear_1_1065)"/>
<path opacity="0.1" d="M1702.79 184.97C1710.02 184.97 1715.88 179.114 1715.88 171.89C1715.88 164.666 1710.02 158.81 1702.79 158.81C1695.56 158.81 1689.7 164.666 1689.7 171.89C1689.7 179.114 1695.56 184.97 1702.79 184.97Z" fill="url(#paint1_linear_1_1065)"/>
<path opacity="0.3" d="M1567.49 276.267C1609.64 276.267 1643.8 242.141 1643.8 200.045C1643.8 157.948 1609.64 123.823 1567.49 123.823C1525.35 123.823 1491.19 157.948 1491.19 200.045C1491.19 242.141 1525.35 276.267 1567.49 276.267Z" fill="url(#paint2_linear_1_1065)"/>
</g>
<defs>
<filter id="filter0_b_1_1065" x="-100" y="-100" width="2120" height="952" filterUnits="userSpaceOnUse" color-interpolation-filters="sRGB">
<feFlood flood-opacity="0" result="BackgroundImageFix"/>
<feGaussianBlur in="BackgroundImageFix" stdDeviation="50"/>
<feComposite in2="SourceAlpha" operator="in" result="effect1_backgroundBlur_1_1065"/>
<feBlend mode="normal" in="SourceGraphic" in2="effect1_backgroundBlur_1_1065" result="shape"/>
</filter>
<linearGradient id="paint0_linear_1_1065" x1="1648.08" y1="345.394" x2="1643.41" y2="249.071" gradientUnits="userSpaceOnUse">
<stop stop-color="#65CADE"/>
<stop offset="0.16" stop-color="#5EC8DA"/>
<stop offset="0.4" stop-color="#4BC1CD"/>
<stop offset="0.68" stop-color="#2CB6B9"/>
<stop offset="0.99" stop-color="#02A89D"/>
<stop offset="1" stop-color="#00A79C"/>
</linearGradient>
<linearGradient id="paint1_linear_1_1065" x1="1704.22" y1="201.306" x2="1702.66" y2="169.179" gradientUnits="userSpaceOnUse">
<stop stop-color="#65CADE"/>
<stop offset="0.16" stop-color="#5EC8DA"/>
<stop offset="0.4" stop-color="#4BC1CD"/>
<stop offset="0.68" stop-color="#2CB6B9"/>
<stop offset="0.99" stop-color="#02A89D"/>
<stop offset="1" stop-color="#00A79C"/>
</linearGradient>
<linearGradient id="paint2_linear_1_1065" x1="1487.27" y1="262.886" x2="1594.29" y2="178.87" gradientUnits="userSpaceOnUse">
<stop stop-color="#2584C6"/>
<stop offset="1" stop-color="#2584C6" stop-opacity="0"/>
</linearGradient>
<clipPath id="clip0_1_1065">
<rect width="1920" height="819" fill="white"/>
</clipPath>
</defs>
</svg>
